<svg xmlns="http://www.w3.org/2000/svg" xmlns:xlink="http://www.w3.org/1999/xlink" width="100" height="100" viewBox="0 0 100 100"><g><g transform="translate(50 50) scale(0.69 0.69) rotate(0) translate(-50 -50)" style="fill:#FFFFFF"><svg fill="#FFFFFF" xmlns="http://www.w3.org/2000/svg" xmlns:xlink="http://www.w3.org/1999/xlink" version="1.1" x="0px" y="0px" viewBox="0 0 100 100" enable-background="new 0 0 100 100" xml:space="preserve"><path d="M80.561,53.896c0-0.006,0.002-0.015,0.002-0.02c0.016-0.141-0.029-0.272-0.111-0.373c-0.727-1.967-3.809-3.315-4.264-3.5  c-0.025-0.006-1.516-0.37-3.434-1.192c0.012-0.128,0.021-0.245,0.033-0.378c0.389-4.925-0.391-9.565-2.217-13.586  c1.277-0.137,2.045-1.068,2.252-2.084c0.25-1.229-0.256-2.738-1.684-3.114c-1.564-0.408-2.537,0.284-3.031,0.987  c-0.492-0.665-1.018-1.305-1.58-1.913c-4.021-4.351-9.523-6.747-15.494-6.747c-11.464,0-19.748,6.636-21.5,8.16  c-0.547-0.457-1.608-1.176-2.498-0.793c-0.722,0.312-1.068,1.197-1.065,2.688c-0.92,0.627-1.911,1.456-2.821,2.539  c-1.258,1.498-1.341,2.113-1.325,2.881c0.013,0.579,0.027,1.234-1.649,3.451c-1.404,1.858-1.905,2.965-1.73,3.822  c0.167,0.814,0.875,1.22,1.695,1.688c0.466,0.267,0.995,0.568,1.514,0.992c1.839,1.498,3.739,0.396,5.94-0.883  c1.076-0.625,2.296-1.334,3.675-1.849c0.616-0.229,1.247-0.499,1.871-0.765c1.622-0.693,3.284-1.4,4.23-1.17  c0.045,0.012,0.076,0.04,0.118,0.055c0.106,0.055,0.264,0.152,0.47,0.338c0.188,0.272,0.331,0.744,0.347,1.521  c-2.399,0.19-3.083,0.72-3.901,1.506c-0.671,0.647-1.433,1.38-4.265,2.12c-0.746,0.194-1.425,0.364-2.046,0.52  c-4.75,1.186-6.35,1.585-7.87,6.091c-0.307,0.909-0.407,1.582-0.332,2.132c-0.021,0.07-0.031,0.145-0.018,0.223  c0.018,0.11,0.455,2.732,0.913,4.157c0.263,0.82,1.777,1.311,4.902,2.253c3.134,0.945,7.034,2.121,8.692,3.813  c1.213,1.234,6.839,1.813,13.513,1.813c8.56,0,18.845-0.951,23.746-2.687c2.059-0.728,3.105-1.564,3.201-2.558  c0.025-0.276,0.051-0.537,0.074-0.785c0.012-0.017,0.031-0.024,0.041-0.043c0.551-1.054,1.928-1.731,3.033-2.276  c0.902-0.444,1.498-0.737,1.688-1.213c0.232-0.586,0.561-3.093,0.75-4.67c0.131-0.257,0.199-0.54,0.18-0.863  C80.602,54.086,80.58,53.99,80.561,53.896z M70.885,30.616c0.805,0.211,1.117,1.156,0.957,1.947  c-0.068,0.34-0.398,1.383-1.744,1.293c-0.408-0.799-0.863-1.57-1.357-2.312C68.818,31.345,69.332,30.212,70.885,30.616z   M27.431,30.262c0.248-0.109,0.694,0.092,1.111,0.377c-0.413,0.169-0.94,0.413-1.547,0.757  C27.077,30.507,27.335,30.303,27.431,30.262z M37.794,41.825c-0.164-0.063-0.291-0.088-0.366-0.093  c-0.004,0-0.008,0.002-0.012,0.002c-1.255-0.193-2.922,0.509-4.668,1.254c-0.61,0.26-1.227,0.523-1.828,0.748  c-1.458,0.544-2.717,1.275-3.828,1.92c-2.302,1.338-3.561,1.988-4.806,0.973c-0.583-0.476-1.149-0.799-1.649-1.085  c-0.725-0.414-1.139-0.665-1.211-1.021c-0.105-0.514,0.401-1.5,1.548-3.018c1.747-2.311,1.871-3.181,1.852-4.077  c-0.011-0.499-0.02-0.894,1.09-2.215c2.488-2.961,5.722-3.914,5.754-3.924l0.12-0.035l0.089-0.086  c0.085-0.082,8.666-8.193,21.154-8.193c5.688,0,10.93,2.282,14.76,6.426c4.451,4.815,6.58,11.546,5.998,18.953  c0,0.007-0.002,0.012-0.002,0.019c-0.029,0.377-0.061,0.729-0.092,1.067c-0.369,3.992-0.82,5.372-0.986,5.766h-8.348  c-0.049-0.1-0.078-0.165-0.098-0.204c0-0.021-0.01-0.04-0.012-0.061c0.066-0.062,0.266-0.171,0.447-0.27  c0.277-0.15,0.635-0.345,1.068-0.634c1.299-0.866,0.465-5.089-0.379-8.246c-0.098-0.362-0.193-0.713-0.287-1.04  c-0.223-0.773-0.428-1.434-0.574-1.887c-0.084-0.263-0.365-0.407-0.629-0.322c-0.262,0.084-0.406,0.365-0.322,0.629  c0.117,0.363,0.229,0.725,0.336,1.083c-0.41-0.029-0.965-0.021-1.719,0.042h-0.002v0.001c-0.324,0.027-0.68,0.064-1.08,0.114  c-1.246,0.154-2.891,0.428-5.055,0.863c-1.145,0.23-2.441,0.509-3.896,0.838c-0.012-0.271-0.021-0.533-0.037-0.819  c-0.004-0.063-0.004-0.117-0.008-0.181c-0.018-0.275-0.24-0.48-0.531-0.469c-0.275,0.018-0.484,0.254-0.468,0.529  c0.003,0.048,0.003,0.089,0.007,0.137c0.506,8.613-1.366,9.781-1.614,9.896h-6.581c-0.002-0.007-0.002-0.009-0.005-0.015  c0.039-0.071,0.066-0.148,0.066-0.235c0-0.011-0.005-0.02-0.006-0.03c0.18-0.081,0.49-0.184,0.795-0.285l0.138-0.046  c0.613-0.201,1.026-0.539,1.229-1.003c0.283-0.648,0.021-1.265,0.015-1.265h0c-0.816-3.056-1.627-5.227-2.373-6.775  c-0.174-0.361-0.345-0.688-0.511-0.985c-0.653-1.163-1.236-1.846-1.71-2.25c-0.053-0.055-0.1-0.118-0.158-0.166  C38.224,41.998,38.015,41.899,37.794,41.825z M60.775,45.517c-0.004-0.097-0.01-0.193-0.014-0.275  c0.703-0.059,1.209-0.059,1.443,0.017c0.039,0.135,0.076,0.269,0.111,0.402c1.07,3.923,1.486,7.153,0.898,7.546  c-0.402,0.269-0.734,0.447-0.992,0.587c-0.449,0.244-0.736,0.46-0.869,0.726h-4.748c-0.018-0.255,0.023-0.345,0.041-0.371  c0.061-0.09,0.355-0.146,0.641-0.201c0.553-0.105,1.309-0.25,2.074-0.846C60.904,51.901,60.861,47.385,60.775,45.517z   M38.939,47.826c0.173-0.839,0.279-1.574,0.332-2.229c0.019-0.235,0.035-0.466,0.038-0.679c0.118,0.203,0.239,0.424,0.364,0.665  c0.763,1.475,1.646,3.697,2.552,7.081c0.001,0.003,0.115,0.28,0.007,0.527c-0.084,0.192-0.294,0.345-0.626,0.454l-0.138,0.046  c-0.767,0.253-1.209,0.413-1.438,0.765h-5.913c-0.149-0.228-0.28-0.522-0.226-0.651c0.033-0.076,0.241-0.214,0.815-0.245  C37.323,53.42,38.774,48.428,38.939,47.826z M73.846,63.938c-0.025,0.253-0.32,0.926-2.539,1.711  c-8.715,3.086-33.964,3.402-36.211,1.116c-1.838-1.875-5.874-3.093-9.117-4.07c-1.785-0.539-4.007-1.209-4.239-1.601  c-0.212-0.661-0.425-1.626-0.588-2.444c0.724,0.377,1.757,0.657,3.18,1.038c2.38,0.637,5.976,1.599,10.859,3.824  c0.1,0.038,2.554,0.922,11.157,0.922c5.006,0,11.092-0.299,18.118-0.892c1.4-0.189,7.205-1.068,9.693-2.809  C74.082,61.496,73.98,62.526,73.846,63.938z M78.756,59.331c-0.102,0.157-0.74,0.472-1.207,0.702  c-0.762,0.375-1.703,0.843-2.463,1.492c0.172-1.736,0.246-2.379,0.273-2.597c0.238-0.893,1.416-1.479,2.568-2.046  c0.467-0.229,0.936-0.464,1.352-0.724C79.09,57.621,78.879,59.019,78.756,59.331z M79.459,54.714  c-0.324,0.461-1.129,0.857-1.971,1.271c-1.279,0.628-2.705,1.336-3.082,2.616c-0.004,0.013-0.012,0.022-0.016,0.035  c-0.002,0.009-0.006,0.042-0.018,0.128c-0.023,0.106-0.055,0.207-0.064,0.321c-0.107,1.458-6.018,2.931-9.953,3.465  c-6.971,0.587-13.029,0.885-18.008,0.885c-8.317,0-10.769-0.845-10.774-0.845c-4.927-2.247-8.572-3.222-10.983-3.867  c-2.046-0.548-3.282-0.879-3.617-1.505c-0.204-0.38-0.142-0.999,0.199-2.01c1.345-3.988,2.462-4.267,7.165-5.441  c0.625-0.155,1.308-0.326,2.057-0.522c3.085-0.806,3.984-1.671,4.706-2.366c0.611-0.588,1.086-1.039,3.167-1.22  c-0.05,0.541-0.143,1.176-0.299,1.935c-0.348,1.262-1.704,4.882-3.314,4.969c-0.895,0.048-1.46,0.334-1.681,0.851  c-0.352,0.823,0.426,1.765,0.516,1.87l0.15,0.174h6.328c0.043,0.139,0.094,0.282,0.156,0.436l0.126,0.314h0.338l7.07-0.005  c0.483-0.068,2.723-0.844,2.543-9.07c3.23-0.731,6.633-1.388,9.016-1.714c0.186,0.01,0.377,0.019,0.557,0.029  c0.129,2.479-0.035,6.096-1.023,6.865c-0.576,0.448-1.146,0.557-1.648,0.652c-0.486,0.094-0.99,0.189-1.283,0.626  c-0.234,0.349-0.275,0.82-0.131,1.528l0.08,0.4h5.646c0.053,0.128,0.119,0.268,0.199,0.42l0.141,0.268h9.439l0.145-0.138  c0.197-0.188,0.836-1.189,1.324-6.206c1.803,0.748,3.158,1.077,3.219,1.088c0.934,0.392,3.27,1.641,3.67,2.987  C79.521,54.181,79.492,54.441,79.459,54.714z M35.992,32.94c-1.231-0.982-2.862,0.255-2.931,0.308  c-0.218,0.169-0.258,0.481-0.09,0.7c0.169,0.218,0.481,0.261,0.701,0.092c0.011-0.008,1.087-0.806,1.695-0.318  c0.153,0.123,0.233,0.285,0.251,0.512c0.046,0.577-0.343,1.381-0.746,1.824c-0.186,0.204-0.17,0.52,0.034,0.706  c0.096,0.087,0.216,0.13,0.336,0.13c0.136,0,0.271-0.055,0.37-0.164c0.535-0.588,1.077-1.645,1.003-2.576  C36.576,33.655,36.36,33.235,35.992,32.94z M20.626,55c0-0.276-0.224-0.5-0.5-0.5H12.25c-0.276,0-0.5,0.224-0.5,0.5  s0.224,0.5,0.5,0.5h7.876C20.403,55.5,20.626,55.276,20.626,55z M88.21,55c0-0.276-0.224-0.5-0.5-0.5h-7.877  c-0.276,0-0.5,0.224-0.5,0.5s0.224,0.5,0.5,0.5h7.877C87.986,55.5,88.21,55.276,88.21,55z M26.75,65.875c0-0.276-0.224-0.5-0.5-0.5  h-4.371c-0.276,0-0.5,0.224-0.5,0.5s0.224,0.5,0.5,0.5h4.371C26.526,66.375,26.75,66.151,26.75,65.875z M22.812,69.278  c0-0.276-0.224-0.5-0.5-0.5h-4.371c-0.276,0-0.5,0.224-0.5,0.5s0.224,0.5,0.5,0.5h4.371C22.588,69.778,22.812,69.555,22.812,69.278z   M31.978,69.278c0-0.276-0.224-0.5-0.5-0.5h-4.371c-0.276,0-0.5,0.224-0.5,0.5s0.224,0.5,0.5,0.5h4.371  C31.754,69.778,31.978,69.555,31.978,69.278z M38.226,72.125c0-0.276-0.224-0.5-0.5-0.5h-4.371c-0.276,0-0.5,0.224-0.5,0.5  s0.224,0.5,0.5,0.5h4.371C38.002,72.625,38.226,72.401,38.226,72.125z M46.213,74.167c0-0.276-0.224-0.5-0.5-0.5h-4.371  c-0.276,0-0.5,0.224-0.5,0.5s0.224,0.5,0.5,0.5h4.371C45.989,74.667,46.213,74.443,46.213,74.167z M55.442,72.125  c0-0.276-0.224-0.5-0.5-0.5h-4.371c-0.276,0-0.5,0.224-0.5,0.5s0.224,0.5,0.5,0.5h4.371C55.219,72.625,55.442,72.401,55.442,72.125z   M65.071,72.688c0-0.276-0.224-0.5-0.5-0.5H60.2c-0.276,0-0.5,0.224-0.5,0.5s0.224,0.5,0.5,0.5h4.371  C64.848,73.188,65.071,72.964,65.071,72.688z M73.88,70.25c0-0.276-0.224-0.5-0.5-0.5h-4.371c-0.276,0-0.5,0.224-0.5,0.5  s0.224,0.5,0.5,0.5h4.371C73.656,70.75,73.88,70.526,73.88,70.25z M82.186,66.75c0-0.276-0.224-0.5-0.5-0.5h-4.371  c-0.276,0-0.5,0.224-0.5,0.5s0.224,0.5,0.5,0.5h4.371C81.962,67.25,82.186,67.026,82.186,66.75z M85.481,62.75  c0-0.276-0.224-0.5-0.5-0.5H80.61c-0.276,0-0.5,0.224-0.5,0.5s0.224,0.5,0.5,0.5h4.371C85.258,63.25,85.481,63.026,85.481,62.75z   M47.727,78.25c0-0.276-0.224-0.5-0.5-0.5h-4.371c-0.276,0-0.5,0.224-0.5,0.5s0.224,0.5,0.5,0.5h4.371  C47.503,78.75,47.727,78.526,47.727,78.25z M69.438,75.708c0-0.276-0.224-0.5-0.5-0.5h-4.371c-0.276,0-0.5,0.224-0.5,0.5  s0.224,0.5,0.5,0.5h4.371C69.215,76.208,69.438,75.984,69.438,75.708z M57.628,76.375c0-0.276-0.224-0.5-0.5-0.5h-4.371  c-0.276,0-0.5,0.224-0.5,0.5s0.224,0.5,0.5,0.5h4.371C57.404,76.875,57.628,76.651,57.628,76.375z M36.349,75.708  c0-0.276-0.224-0.5-0.5-0.5h-4.371c-0.276,0-0.5,0.224-0.5,0.5s0.224,0.5,0.5,0.5h4.371C36.125,76.208,36.349,75.984,36.349,75.708z   M27.607,73c0-0.276-0.224-0.5-0.5-0.5h-4.371c-0.276,0-0.5,0.224-0.5,0.5s0.224,0.5,0.5,0.5h4.371  C27.384,73.5,27.607,73.276,27.607,73z M20.25,63.75c0-0.276-0.224-0.5-0.5-0.5h-4.371c-0.276,0-0.5,0.224-0.5,0.5  s0.224,0.5,0.5,0.5h4.371C20.026,64.25,20.25,64.026,20.25,63.75z M17.121,59.25c0-0.276-0.224-0.5-0.5-0.5H12.25  c-0.276,0-0.5,0.224-0.5,0.5s0.224,0.5,0.5,0.5h4.371C16.897,59.75,17.121,59.526,17.121,59.25z M88.21,58.375  c0-0.276-0.224-0.5-0.5-0.5h-4.371c-0.276,0-0.5,0.224-0.5,0.5s0.224,0.5,0.5,0.5h4.371C87.986,58.875,88.21,58.651,88.21,58.375z"></path></svg></g></g></svg>